<svg width="28" height="25" viewBox="0 0 28 25" fill="none" xmlns="http://www.w3.org/2000/svg">
<path d="M23.2713 13.6563H1.78125C1.47459 13.6563 1.1805 13.5344 0.963658 13.3176C0.746819 13.1008 0.625 12.8067 0.625 12.5C0.625 12.1933 0.746819 11.8993 0.963658 11.6824C1.1805 11.4656 1.47459 11.3438 1.78125 11.3438H23.2713L14.8376 2.91238C14.6205 2.69527 14.4985 2.4008 14.4985 2.09376C14.4985 1.78671 14.6205 1.49224 14.8376 1.27513C15.0547 1.05802 15.3492 0.936045 15.6562 0.936045C15.9633 0.936045 16.2578 1.05802 16.4749 1.27513L26.8811 11.6814C26.9888 11.7888 27.0742 11.9164 27.1325 12.0569C27.1908 12.1973 27.2208 12.3479 27.2208 12.5C27.2208 12.6521 27.1908 12.8027 27.1325 12.9432C27.0742 13.0836 26.9888 13.2112 26.8811 13.3186L16.4749 23.7249C16.2578 23.942 15.9633 24.064 15.6562 24.064C15.3492 24.064 15.0547 23.942 14.8376 23.7249C14.6205 23.5078 14.4985 23.2133 14.4985 22.9063C14.4985 22.5992 14.6205 22.3047 14.8376 22.0876L23.2713 13.6563Z" fill="black"/>
</svg>
