<svg width="67" height="67" viewBox="0 0 67 67" fill="none" xmlns="http://www.w3.org/2000/svg">
<path d="M66 33.5C66 51.4493 51.4493 66 33.5 66C15.5507 66 1 51.4493 1 33.5C1 15.5507 15.5507 1 33.5 1C51.4493 1 66 15.5507 66 33.5Z" fill="white" stroke="#F57F20" stroke-width="2"/>
<path d="M35.5 35.875H38.625L39.875 30.875H35.5V28.375C35.5 27.0875 35.5 25.875 38 25.875H39.875V21.675C39.4675 21.6213 37.9287 21.5 36.3037 21.5C32.91 21.5 30.5 23.5712 30.5 27.375V30.875H26.75V35.875H30.5V46.5H35.5V35.875Z" fill="#F57F20"/>
</svg>
