<svg width="67" height="67" viewBox="0 0 67 67" fill="none" xmlns="http://www.w3.org/2000/svg">
<path d="M66 33.5C66 51.4493 51.4493 66 33.5 66C15.5507 66 1 51.4493 1 33.5C1 15.5507 15.5507 1 33.5 1C51.4493 1 66 15.5507 66 33.5Z" fill="white" stroke="#F57F20" stroke-width="2"/>
<path d="M34.285 21.5C35.6912 21.5038 36.405 21.5113 37.0212 21.5288L37.2637 21.5375C37.5437 21.5475 37.82 21.56 38.1537 21.575C39.4837 21.6375 40.3912 21.8475 41.1875 22.1563C42.0125 22.4738 42.7075 22.9037 43.4025 23.5975C44.0381 24.2224 44.5299 24.9782 44.8437 25.8125C45.1525 26.6087 45.3625 27.5162 45.425 28.8475C45.44 29.18 45.4525 29.4563 45.4625 29.7375L45.47 29.98C45.4887 30.595 45.4962 31.3088 45.4987 32.715L45.5 33.6475V35.285C45.5031 36.1968 45.4935 37.1085 45.4712 38.02L45.4637 38.2625C45.4537 38.5437 45.4412 38.82 45.4262 39.1525C45.3637 40.4837 45.1512 41.39 44.8437 42.1875C44.5308 43.0222 44.0389 43.7783 43.4025 44.4025C42.7774 45.0379 42.0216 45.5297 41.1875 45.8438C40.3912 46.1525 39.4837 46.3625 38.1537 46.425C37.8571 46.439 37.5605 46.4515 37.2637 46.4625L37.0212 46.47C36.405 46.4875 35.6912 46.4963 34.285 46.4988L33.3525 46.5H31.7162C30.8041 46.5031 29.8919 46.4936 28.98 46.4712L28.7375 46.4638C28.4408 46.4525 28.1441 46.4396 27.8475 46.425C26.5175 46.3625 25.61 46.1525 24.8125 45.8438C23.9783 45.5305 23.2228 45.0386 22.5987 44.4025C21.9625 43.7779 21.4703 43.0219 21.1562 42.1875C20.8475 41.3912 20.6375 40.4837 20.575 39.1525C20.5611 38.8559 20.5486 38.5592 20.5375 38.2625L20.5312 38.02C20.5082 37.1085 20.4978 36.1968 20.5 35.285V32.715C20.4965 31.8033 20.5057 30.8915 20.5275 29.98L20.5362 29.7375C20.5462 29.4563 20.5587 29.18 20.5737 28.8475C20.6362 27.5162 20.8462 26.61 21.155 25.8125C21.4689 24.9774 21.9621 24.2213 22.6 23.5975C23.2239 22.9618 23.9789 22.47 24.8125 22.1563C25.61 21.8475 26.5162 21.6375 27.8475 21.575C28.18 21.56 28.4575 21.5475 28.7375 21.5375L28.98 21.53C29.8915 21.5078 30.8032 21.4982 31.715 21.5012L34.285 21.5ZM33 27.75C31.3424 27.75 29.7527 28.4085 28.5806 29.5806C27.4085 30.7527 26.75 32.3424 26.75 34C26.75 35.6576 27.4085 37.2473 28.5806 38.4194C29.7527 39.5915 31.3424 40.25 33 40.25C34.6576 40.25 36.2473 39.5915 37.4194 38.4194C38.5915 37.2473 39.25 35.6576 39.25 34C39.25 32.3424 38.5915 30.7527 37.4194 29.5806C36.2473 28.4085 34.6576 27.75 33 27.75ZM33 30.25C33.4924 30.2499 33.9801 30.3468 34.4351 30.5352C34.8901 30.7236 35.3035 30.9997 35.6518 31.3479C36.0001 31.6961 36.2764 32.1094 36.4649 32.5644C36.6535 33.0193 36.7505 33.5069 36.7506 33.9994C36.7507 34.4918 36.6538 34.9795 36.4654 35.4345C36.277 35.8895 36.0009 36.3029 35.6527 36.6512C35.3045 36.9995 34.8912 37.2758 34.4363 37.4643C33.9813 37.6528 33.4937 37.7499 33.0012 37.75C32.0067 37.75 31.0528 37.3549 30.3496 36.6517C29.6463 35.9484 29.2512 34.9946 29.2512 34C29.2512 33.0054 29.6463 32.0516 30.3496 31.3483C31.0528 30.6451 32.0067 30.25 33.0012 30.25M39.5637 25.875C39.1493 25.875 38.7519 26.0396 38.4589 26.3326C38.1659 26.6257 38.0012 27.0231 38.0012 27.4375C38.0012 27.8519 38.1659 28.2493 38.4589 28.5424C38.7519 28.8354 39.1493 29 39.5637 29C39.9781 29 40.3756 28.8354 40.6686 28.5424C40.9616 28.2493 41.1262 27.8519 41.1262 27.4375C41.1262 27.0231 40.9616 26.6257 40.6686 26.3326C40.3756 26.0396 39.9781 25.875 39.5637 25.875Z" fill="#F57F20"/>
</svg>
