<svg width="77" height="77" viewBox="0 0 77 77" fill="none" xmlns="http://www.w3.org/2000/svg">
<g filter="url(#filter0_f_138_41)">
<path d="M72 38.5C72 57.0015 57.0015 72 38.5 72C19.9985 72 5 57.0015 5 38.5C5 19.9985 19.9985 5 38.5 5C57.0015 5 72 19.9985 72 38.5Z" fill="white"/>
<path d="M71 38.5C71 56.4493 56.4493 71 38.5 71C20.5507 71 6 56.4493 6 38.5C6 20.5507 20.5507 6 38.5 6C56.4493 6 71 20.5507 71 38.5Z" stroke="#F57F20" stroke-width="2"/>
</g>
<path d="M48 39C47.9995 36.348 46.9457 33.8048 45.0705 31.9295C43.1952 30.0543 40.652 29.0005 38 29V31C39.5821 31.0004 41.1286 31.4696 42.4441 32.3485C43.7596 33.2274 44.7851 34.4765 45.391 35.938C45.7931 36.9088 46.0001 37.9492 46 39H48ZM28 37V32C28 31.7348 28.1054 31.4804 28.2929 31.2929C28.4804 31.1054 28.7348 31 29 31H34C34.2652 31 34.5196 31.1054 34.7071 31.2929C34.8946 31.4804 35 31.7348 35 32V36C35 36.2652 34.8946 36.5196 34.7071 36.7071C34.5196 36.8946 34.2652 37 34 37H32C32 39.1217 32.8429 41.1566 34.3431 42.6569C35.8434 44.1571 37.8783 45 40 45V43C40 42.7348 40.1054 42.4804 40.2929 42.2929C40.4804 42.1054 40.7348 42 41 42H45C45.2652 42 45.5196 42.1054 45.7071 42.2929C45.8946 42.4804 46 42.7348 46 43V48C46 48.2652 45.8946 48.5196 45.7071 48.7071C45.5196 48.8946 45.2652 49 45 49H40C33.373 49 28 43.627 28 37Z" fill="#F57F20"/>
<path d="M43.543 36.704C43.8449 37.4318 44.0002 38.2121 44 39H42.2C42.2001 38.4484 42.0916 37.9022 41.8806 37.3926C41.6695 36.8829 41.3602 36.4199 40.9701 36.0299C40.5801 35.6398 40.1171 35.3305 39.6074 35.1194C39.0978 34.9084 38.5516 34.7999 38 34.8V33C39.1867 33.0001 40.3466 33.352 41.3333 34.0113C42.3199 34.6706 43.0889 35.6077 43.543 36.704Z" fill="#F57F20"/>
<defs>
<filter id="filter0_f_138_41" x="0" y="0" width="77" height="77" filterUnits="userSpaceOnUse" color-interpolation-filters="sRGB">
<feFlood flood-opacity="0" result="BackgroundImageFix"/>
<feBlend mode="normal" in="SourceGraphic" in2="BackgroundImageFix" result="shape"/>
<feGaussianBlur stdDeviation="2.5" result="effect1_foregroundBlur_138_41"/>
</filter>
</defs>
</svg>
