<svg className="" width="67" height="67" viewBox="0 0 67 67" fill="none" xmlns="http://www.w3.org/2000/svg">
<path d="M66 33.5C66 51.4493 51.4493 66 33.5 66C15.5507 66 1 51.4493 1 33.5C1 15.5507 15.5507 1 33.5 1C51.4493 1 66 15.5507 66 33.5Z" fill="white" stroke="#F57F20" stroke-width="2"/>
<path d="M46.075 26.5C45.1125 26.9375 44.075 27.225 43 27.3625C44.1 26.7 44.95 25.65 45.35 24.3875C44.3125 25.0125 43.1625 25.45 41.95 25.7C40.9625 24.625 39.575 24 38 24C35.0625 24 32.6625 26.4 32.6625 29.3625C32.6625 29.7875 32.7125 30.2 32.8 30.5875C28.35 30.3625 24.3875 28.225 21.75 24.9875C21.2875 25.775 21.025 26.7 21.025 27.675C21.025 29.5375 21.9625 31.1875 23.4125 32.125C22.525 32.125 21.7 31.875 20.975 31.5V31.5375C20.975 34.1375 22.825 36.3125 25.275 36.8C24.4884 37.0153 23.6626 37.0452 22.8625 36.8875C23.202 37.9531 23.8669 38.8855 24.7638 39.5537C25.6606 40.2218 26.7443 40.5921 27.8625 40.6125C25.967 42.113 23.6175 42.9241 21.2 42.9125C20.775 42.9125 20.35 42.8875 19.925 42.8375C22.3 44.3625 25.125 45.25 28.15 45.25C38 45.25 43.4125 37.075 43.4125 29.9875C43.4125 29.75 43.4125 29.525 43.4 29.2875C44.45 28.5375 45.35 27.5875 46.075 26.5Z" fill="#F57F20"/>
</svg>
