<svg width="73" height="117" viewBox="0 0 73 117" fill="none" xmlns="http://www.w3.org/2000/svg">
<path d="M7.40107 104.447C10.8483 104.408 13.6741 107.171 13.7127 110.619C13.7513 114.066 10.988 116.892 7.54074 116.93C4.0935 116.969 1.26768 114.205 1.22911 110.758C1.19055 107.311 3.95382 104.485 7.40107 104.447Z" fill="#D9D9D9" fill-opacity="0.5"/>
<path d="M7.1776 84.4728C10.6248 84.4343 13.4507 87.1976 13.4892 90.6448C13.5278 94.092 10.7645 96.9179 7.31727 96.9564C3.87002 96.995 1.04421 94.2317 1.00564 90.7845C0.967071 87.3372 3.73035 84.5114 7.1776 84.4728Z" fill="#D9D9D9" fill-opacity="0.5"/>
<path d="M6.95412 64.4991C10.4014 64.4605 13.2272 67.2238 13.2658 70.6711C13.3043 74.1183 10.541 76.9441 7.09379 76.9827C3.64655 77.0213 0.820735 74.258 0.782166 70.8107C0.743597 67.3635 3.50688 64.5377 6.95412 64.4991Z" fill="#D9D9D9" fill-opacity="0.5"/>
<path d="M6.71668 43.277C10.1639 43.2384 12.9897 46.0017 13.0283 49.449C13.0669 52.8962 10.3036 55.722 6.85635 55.7606C3.40911 55.7992 0.583294 53.0359 0.544724 49.5886C0.506155 46.1414 3.26943 43.3156 6.71668 43.277Z" fill="#D9D9D9" fill-opacity="0.5"/>
<path d="M6.47924 22.0549C9.92649 22.0163 12.7523 24.7796 12.7909 28.2269C12.8294 31.6741 10.0662 34.4999 6.61891 34.5385C3.17166 34.5771 0.345852 31.8138 0.307283 28.3665C0.268714 24.9193 3.03199 22.0935 6.47924 22.0549Z" fill="#D9D9D9" fill-opacity="0.5"/>
<path d="M6.2418 0.832816C9.68905 0.794247 12.5149 3.55753 12.5534 7.00478C12.592 10.452 9.82872 13.2778 6.38147 13.3164C2.93422 13.355 0.108411 10.5917 0.0698416 7.14445C0.0312724 3.6972 2.79455 0.871386 6.2418 0.832816Z" fill="#D9D9D9" fill-opacity="0.5"/>
<path d="M22.3814 104.279C25.8286 104.24 28.6544 107.004 28.693 110.451C28.7316 113.898 25.9683 116.724 22.521 116.763C19.0738 116.801 16.248 114.038 16.2094 110.591C16.1708 107.143 18.9341 104.318 22.3814 104.279Z" fill="#D9D9D9" fill-opacity="0.5"/>
<path d="M22.1579 84.3052C25.6051 84.2667 28.431 87.0299 28.4695 90.4772C28.5081 93.9244 25.7448 96.7503 22.2976 96.7888C18.8503 96.8274 16.0245 94.0641 15.9859 90.6169C15.9474 87.1696 18.7107 84.3438 22.1579 84.3052Z" fill="#D9D9D9" fill-opacity="0.5"/>
<path d="M21.9344 64.3315C25.3817 64.2929 28.2075 67.0562 28.2461 70.5035C28.2846 73.9507 25.5213 76.7765 22.0741 76.8151C18.6269 76.8537 15.801 74.0904 15.7625 70.6431C15.7239 67.1959 18.4872 64.3701 21.9344 64.3315Z" fill="#D9D9D9" fill-opacity="0.5"/>
<path d="M21.697 43.1094C25.1442 43.0708 27.97 45.8341 28.0086 49.2814C28.0472 52.7286 25.2839 55.5544 21.8367 55.593C18.3894 55.6316 15.5636 52.8683 15.525 49.421C15.4865 45.9738 18.2497 43.148 21.697 43.1094Z" fill="#D9D9D9" fill-opacity="0.5"/>
<path d="M21.4595 21.8873C24.9068 21.8487 27.7326 24.612 27.7712 28.0593C27.8097 31.5065 25.0465 34.3323 21.5992 34.3709C18.152 34.4095 15.3262 31.6462 15.2876 28.1989C15.249 24.7517 18.0123 21.9259 21.4595 21.8873Z" fill="#D9D9D9" fill-opacity="0.5"/>
<path d="M21.2221 0.665211C24.6693 0.626642 27.4952 3.38992 27.5337 6.83717C27.5723 10.2844 24.809 13.1102 21.3618 13.1488C17.9145 13.1874 15.0887 10.4241 15.0501 6.97684C15.0116 3.5296 17.7749 0.70378 21.2221 0.665211Z" fill="#D9D9D9" fill-opacity="0.5"/>
<path d="M37.3617 104.111C40.8089 104.073 43.6347 106.836 43.6733 110.283C43.7119 113.731 40.9486 116.556 37.5013 116.595C34.0541 116.634 31.2283 113.87 31.1897 110.423C31.1512 106.976 33.9144 104.15 37.3617 104.111Z" fill="#D9D9D9" fill-opacity="0.5"/>
<path d="M37.1382 84.1376C40.5854 84.0991 43.4113 86.8623 43.4498 90.3096C43.4884 93.7568 40.7251 96.5826 37.2779 96.6212C33.8306 96.6598 31.0048 93.8965 30.9662 90.4493C30.9277 87.002 33.691 84.1762 37.1382 84.1376Z" fill="#D9D9D9" fill-opacity="0.5"/>
<path d="M36.9147 64.1639C40.362 64.1253 43.1878 66.8886 43.2264 70.3359C43.2649 73.7831 40.5016 76.6089 37.0544 76.6475C33.6072 76.686 30.7813 73.9228 30.7428 70.4755C30.7042 67.0283 33.4675 64.2025 36.9147 64.1639Z" fill="#D9D9D9" fill-opacity="0.5"/>
<path d="M36.6773 42.9418C40.1245 42.9032 42.9503 45.6665 42.9889 49.1138C43.0275 52.561 40.2642 55.3868 36.817 55.4254C33.3697 55.464 30.5439 52.7007 30.5053 49.2534C30.4668 45.8062 33.23 42.9804 36.6773 42.9418Z" fill="#D9D9D9" fill-opacity="0.5"/>
<path d="M36.4398 21.7197C39.8871 21.6811 42.7129 24.4444 42.7515 27.8917C42.79 31.3389 40.0268 34.1647 36.5795 34.2033C33.1323 34.2419 30.3065 31.4786 30.2679 28.0313C30.2293 24.5841 32.9926 21.7583 36.4398 21.7197Z" fill="#D9D9D9" fill-opacity="0.5"/>
<path d="M36.2024 0.497605C39.6497 0.459036 42.4755 3.22232 42.514 6.66957C42.5526 10.1168 39.7893 12.9426 36.3421 12.9812C32.8948 13.0198 30.069 10.2565 30.0304 6.80924C29.9919 3.36199 32.7552 0.536174 36.2024 0.497605Z" fill="#D9D9D9" fill-opacity="0.5"/>
<path d="M52.342 103.944C55.7892 103.905 58.615 106.668 58.6536 110.116C58.6922 113.563 55.9289 116.389 52.4817 116.427C49.0344 116.466 46.2086 113.703 46.17 110.255C46.1315 106.808 48.8947 103.982 52.342 103.944Z" fill="#D9D9D9" fill-opacity="0.5"/>
<path d="M52.1185 83.97C55.5658 83.9315 58.3916 86.6947 58.4301 90.142C58.4687 93.5892 55.7054 96.415 52.2582 96.4536C48.8109 96.4922 45.9851 93.7289 45.9465 90.2817C45.908 86.8344 48.6713 84.0086 52.1185 83.97Z" fill="#D9D9D9" fill-opacity="0.5"/>
<path d="M51.895 63.9963C55.3423 63.9577 58.1681 66.721 58.2067 70.1682C58.2452 73.6155 55.4819 76.4413 52.0347 76.4799C48.5875 76.5184 45.7616 73.7552 45.7231 70.3079C45.6845 66.8607 48.4478 64.0349 51.895 63.9963Z" fill="#D9D9D9" fill-opacity="0.5"/>
<path d="M51.6576 42.7742C55.1048 42.7356 57.9307 45.4989 57.9692 48.9461C58.0078 52.3934 55.2445 55.2192 51.7973 55.2578C48.35 55.2963 45.5242 52.5331 45.4856 49.0858C45.4471 45.6386 48.2103 42.8128 51.6576 42.7742Z" fill="#D9D9D9" fill-opacity="0.5"/>
<path d="M51.4201 21.5521C54.8674 21.5135 57.6932 24.2768 57.7318 27.7241C57.7703 31.1713 55.0071 33.9971 51.5598 34.0357C48.1126 34.0743 45.2868 31.311 45.2482 27.8637C45.2096 24.4165 47.9729 21.5907 51.4201 21.5521Z" fill="#D9D9D9" fill-opacity="0.5"/>
<path d="M51.1827 0.329999C54.63 0.29143 57.4558 3.05471 57.4943 6.50196C57.5329 9.94921 54.7696 12.775 51.3224 12.8136C47.8751 12.8522 45.0493 10.0889 45.0108 6.64163C44.9722 3.19438 47.7355 0.368568 51.1827 0.329999Z" fill="#D9D9D9" fill-opacity="0.5"/>
<path d="M66.0739 103.79C69.5212 103.752 72.347 106.515 72.3855 109.962C72.4241 113.409 69.6608 116.235 66.2136 116.274C62.7663 116.312 59.9405 113.549 59.902 110.102C59.8634 106.655 62.6267 103.829 66.0739 103.79Z" fill="#D9D9D9" fill-opacity="0.5"/>
<path d="M65.8505 83.8164C69.2977 83.7778 72.1235 86.5411 72.1621 89.9883C72.2006 93.4356 69.4374 96.2614 65.9901 96.3C62.5429 96.3385 59.7171 93.5753 59.6785 90.128C59.6399 86.6808 62.4032 83.855 65.8505 83.8164Z" fill="#D9D9D9" fill-opacity="0.5"/>
<path d="M65.627 63.8426C69.0742 63.8041 71.9 66.5674 71.9386 70.0146C71.9772 73.4619 69.2139 76.2877 65.7666 76.3262C62.3194 76.3648 59.4936 73.6015 59.455 70.1543C59.4164 66.707 62.1797 63.8812 65.627 63.8426Z" fill="#D9D9D9" fill-opacity="0.5"/>
<path d="M65.3895 42.6206C68.8368 42.582 71.6626 45.3453 71.7012 48.7925C71.7397 52.2398 68.9765 55.0656 65.5292 55.1041C62.082 55.1427 59.2561 52.3794 59.2176 48.9322C59.179 45.4849 61.9423 42.6591 65.3895 42.6206Z" fill="#D9D9D9" fill-opacity="0.5"/>
<path d="M65.1521 21.3985C68.5993 21.3599 71.4251 24.1232 71.4637 27.5704C71.5023 31.0177 68.739 33.8435 65.2918 33.882C61.8445 33.9206 59.0187 31.1573 58.9801 27.7101C58.9416 24.2628 61.7048 21.437 65.1521 21.3985Z" fill="#D9D9D9" fill-opacity="0.5"/>
<path d="M64.9147 0.176361C68.3619 0.137791 71.1877 2.90107 71.2263 6.34832C71.2648 9.79557 68.5016 12.6214 65.0543 12.6599C61.6071 12.6985 58.7813 9.93524 58.7427 6.48799C58.7041 3.04075 61.4674 0.21493 64.9147 0.176361Z" fill="#D9D9D9" fill-opacity="0.5"/>
</svg>
