<svg width="67" height="67" viewBox="0 0 67 67" fill="none" xmlns="http://www.w3.org/2000/svg">
<path d="M66 33.5C66 51.4493 51.4493 66 33.5 66C15.5507 66 1 51.4493 1 33.5C1 15.5507 15.5507 1 33.5 1C51.4493 1 66 15.5507 66 33.5Z" fill="white" stroke="#F57F20" stroke-width="2"/>
<path d="M30.5 37.75L36.9875 34L30.5 30.25V37.75ZM44.95 27.9625C45.1125 28.55 45.225 29.3375 45.3 30.3375C45.3875 31.3375 45.425 32.2 45.425 32.95L45.5 34C45.5 36.7375 45.3 38.75 44.95 40.0375C44.6375 41.1625 43.9125 41.8875 42.7875 42.2C42.2 42.3625 41.125 42.475 39.475 42.55C37.85 42.6375 36.3625 42.675 34.9875 42.675L33 42.75C27.7625 42.75 24.5 42.55 23.2125 42.2C22.0875 41.8875 21.3625 41.1625 21.05 40.0375C20.8875 39.45 20.775 38.6625 20.7 37.6625C20.6125 36.6625 20.575 35.8 20.575 35.05L20.5 34C20.5 31.2625 20.7 29.25 21.05 27.9625C21.3625 26.8375 22.0875 26.1125 23.2125 25.8C23.8 25.6375 24.875 25.525 26.525 25.45C28.15 25.3625 29.6375 25.325 31.0125 25.325L33 25.25C38.2375 25.25 41.5 25.45 42.7875 25.8C43.9125 26.1125 44.6375 26.8375 44.95 27.9625Z" fill="#F57F20"/>
</svg>
